<mxfile host="Electron" agent="Mozilla/5.0 (Windows NT 10.0; Win64; x64) AppleWebKit/537.36 (KHTML, like Gecko) draw.io/25.0.1 Chrome/128.0.6613.186 Electron/32.2.6 Safari/537.36" version="25.0.1">
  <diagram name="第 1 页" id="VX8x2q7U5yT6BQhmhuAg">
    <mxGraphModel dx="292" dy="186" grid="1" gridSize="3.937" guides="1" tooltips="1" connect="1" arrows="1" fold="1" page="1" pageScale="1" pageWidth="48" pageHeight="48" background="#EBEBEB" math="0" shadow="0">
      <root>
        <mxCell id="0" />
        <mxCell id="1" parent="0" />
        <mxCell id="lyHdZdXMzcT8fDuYrFmd-1" value="" style="ellipse;whiteSpace=wrap;html=1;aspect=fixed;fillColor=none;strokeColor=#404040;strokeWidth=2;" parent="1" vertex="1">
          <mxGeometry x="3.94" y="3.94" width="39.37" height="39.37" as="geometry" />
        </mxCell>
        <mxCell id="lyHdZdXMzcT8fDuYrFmd-3" value="" style="endArrow=blockThin;html=1;rounded=0;strokeWidth=1;startArrow=oval;startFill=1;endFill=1;strokeColor=#404040;entryX=1;entryY=0;entryDx=0;entryDy=0;" parent="1" target="lyHdZdXMzcT8fDuYrFmd-1" edge="1">
          <mxGeometry width="50" height="50" relative="1" as="geometry">
            <mxPoint x="24" y="24" as="sourcePoint" />
            <mxPoint x="39" y="24" as="targetPoint" />
          </mxGeometry>
        </mxCell>
      </root>
    </mxGraphModel>
  </diagram>
</mxfile>
